{"title":"The.Huntsman.Winters.War.Ext.2016.1080p.BluRay.x265.10bit-z97","uid":15455760,"size":1344879150,"categoryP":"video","categoryS":"hd___movies","magnet":"?xt=urn:btih:8da38efbe01408c3de00b2db87c3cd7f3a4a7cc0&amp;dn=The.Huntsman.Winters.War.Ext.2016.1080p.BluRay.x265.10bit-z97&amp;tr=udp%3A%2F%2Ftracker.leechers-paradise.org%3A6969&amp;tr=udp%3A%2F%2Fzer0day.ch%3A1337&amp;tr=udp%3A%2F%2Fopen.demonii.com%3A1337&amp;tr=udp%3A%2F%2Ftracker.coppersurfer.tk%3A6969&amp;tr=udp%3A%2F%2Fexodus.desync.com%3A6969","seeders":1,"leechers":0,"uploader":"48848448","files":2,"time":1469983503,"description":"______ _____  ______\r\n                       |___  /|  _  ||___  /\r\n                          / / | |_| |   / / \r\n                         / /  ____ |  / /  \r\n                       ./ /___.___/ /./ /   \r\n                       _____/____/ _/   \r\n\r\n\r\n                         RELEASE NOTES                         \r\n▄▄▄▄▄▄▄▄▄▄▄▄▄▄▄▄▄▄▄▄▄▄▄▄▄▄▄▄▄▄▄▄▄▄▄▄▄▄▄▄▄▄▄▄▄▄▄▄▄▄▄▄▄▄▄▄▄▄▄▄▄▄▄▄▄\r\n\r\n             The Huntsman Winters War Extended 2016\r\n               \r\niMDB url                       : www.imdb.com/title/tt2381991/\r\niMDB Rating                    : 6.1/10 from 33,485 votes\r\nRelease                        : 2016 - April 22nd\r\nGenre                          : Action, Adventure, Drama\r\nSource                         : Blu-ray\r\nSubs                           : ENG/FRA/SPA/POR/HIN/ARA/DAN\r\n                               : NOR/SWE/ICE/NL/FIN/CAT\r\n\r\n                         PLOT SUMMARY                     \r\n▄▄▄▄▄▄▄▄▄▄▄▄▄▄▄▄▄▄▄▄▄▄▄▄▄▄▄▄▄▄▄▄▄▄▄▄▄▄▄▄▄▄▄▄▄▄▄▄▄▄▄▄▄▄▄▄▄▄▄▄▄▄▄▄▄▄\r\n\r\nEric and fellow warrior Sara, raised as members of ice Queen\r\nFreya's army, try to conceal their forbidden love as they fight\r\nto survive the wicked intentions of both Freya and her sister\r\nRavenna.\r\n\r\nDirector : Cedric Nicolas-Troyan\r\nStars    : Chris Hemsworth, Jessica Chastain, Charlize Theron\r\n\r\n                      RELEASE INFORMATION                 \r\n▄▄▄▄▄▄▄▄▄▄▄▄▄▄▄▄▄▄▄▄▄▄▄▄▄▄▄▄▄▄▄▄▄▄▄▄▄▄▄▄▄▄▄▄▄▄▄▄▄▄▄▄▄▄▄▄▄▄▄▄▄▄▄▄▄▄\r\n\r\nVideo\r\nID                             : 1\r\nFormat                         : HEVC\r\nFormat/Info                    : High Efficiency Video Coding\r\nFormat profile                 : Main   @High\r\nCodec ID                       : V_MPEGH/ISO/HEVC\r\nDuration                       : 2h 0mn\r\nBit rate                       : 1 238 Kbps\r\nWidth                          : 1 920 pixels\r\nHeight                         : 804 pixels\r\nDisplay aspect ratio           : 2.40:1\r\nFrame rate mode                : Constant\r\nFrame rate                     : 23.976 fps\r\nColor space                    : YUV\r\nChroma subsampling             : 4:2:0\r\nBit depth                      : 10 bits\r\nBits/(Pixel*Frame)             : 0.033\r\nStream size                    : 1.04 GiB (83%)\r\nWriting library                : x265 2.0+11[64 bit] 10bit\r\nLanguage                       : English\r\nDefault                        : Yes\r\nForced                         : No\r\n\r\nAudio\r\nID                             : 2\r\nFormat                         : AC-3\r\nFormat/Info                    : Audio Coding 3\r\nMode extension                 : CM (complete main)\r\nFormat settings, Endianness    : Big\r\nCodec ID                       : A_AC3\r\nDuration                       : 2h 0mn\r\nBit rate mode                  : Constant\r\nBit rate                       : 224 Kbps\r\nChannel(s)                     : 6 channels\r\nChannel positions              : Front: L C R, Side: L R, LFE\r\nSampling rate                  : 48.0 KHz\r\nCompression mode               : Lossy\r\nStream size                    : 193 MiB (15%)\r\nLanguage                       : English\r\nDefault                        : Yes\r\nForced                         : No","torrent":{"xt":"urn:btih:8da38efbe01408c3de00b2db87c3cd7f3a4a7cc0","amp;dn":"The.Huntsman.Winters.War.Ext.2016.1080p.BluRay.x265.10bit-z97","amp;tr":["udp%3A%2F%2Ftracker.leechers-paradise.org%3A6969","udp%3A%2F%2Fzer0day.ch%3A1337","udp%3A%2F%2Fopen.demonii.com%3A1337","udp%3A%2F%2Ftracker.coppersurfer.tk%3A6969","udp%3A%2F%2Fexodus.desync.com%3A6969"],"infoHash":"8da38efbe01408c3de00b2db87c3cd7f3a4a7cc0","infoHashBuffer":{"type":"Buffer","data":[141,163,142,251,224,20,8,195,222,0,178,219,135,195,205,127,58,74,124,192]},"announce":[],"urlList":[]}}